<svg id="b8a8c1a7-dcb4-4f7b-9c29-e06e5aba8983" data-name="Ebene 3" xmlns="http://www.w3.org/2000/svg" viewBox="0 0 34 34"><defs><style>.fa8e4436-ae7f-4428-a1e2-e7abb05989c6{fill:#fff;}</style></defs><title>btn_light</title><circle class="fa8e4436-ae7f-4428-a1e2-e7abb05989c6" cx="17" cy="16" r="9"/><rect class="fa8e4436-ae7f-4428-a1e2-e7abb05989c6" x="13" y="23" width="8" height="5"/><rect class="fa8e4436-ae7f-4428-a1e2-e7abb05989c6" x="13" y="29" width="8" height="1"/><rect class="fa8e4436-ae7f-4428-a1e2-e7abb05989c6" x="13" y="31" width="8" height="1"/><rect class="fa8e4436-ae7f-4428-a1e2-e7abb05989c6" x="13" y="33" width="8" height="1"/><rect class="fa8e4436-ae7f-4428-a1e2-e7abb05989c6" x="16" width="2" height="5"/><rect class="fa8e4436-ae7f-4428-a1e2-e7abb05989c6" x="29" y="16" width="5" height="2"/><rect class="fa8e4436-ae7f-4428-a1e2-e7abb05989c6" x="25" y="5" width="5" height="2" transform="translate(3.81 21.2) rotate(-45)"/><rect class="fa8e4436-ae7f-4428-a1e2-e7abb05989c6" x="24" y="26" width="5" height="2" transform="translate(26.85 -10.83) rotate(45)"/><rect class="fa8e4436-ae7f-4428-a1e2-e7abb05989c6" y="16" width="5" height="2" transform="translate(5 34) rotate(-180)"/><rect class="fa8e4436-ae7f-4428-a1e2-e7abb05989c6" x="4" y="5" width="5" height="2" transform="translate(6.85 14.84) rotate(-135)"/><rect class="fa8e4436-ae7f-4428-a1e2-e7abb05989c6" x="5" y="26" width="5" height="2" transform="translate(31.9 40.79) rotate(135)"/></svg>